<svg xmlns="http://www.w3.org/2000/svg" viewBox="0 0 1200 380" width="100%" height="100%">
  <defs>
    <!-- Background Grid Pattern -->
    <pattern id="grid" width="40" height="40" patternUnits="userSpaceOnUse">
      <path d="M 40 0 L 0 0 0 40" fill="none" stroke="rgba(56, 189, 248, 0.05)" stroke-width="1"/>
      <circle cx="40" cy="0" r="1" fill="rgba(56, 189, 248, 0.18)"/>
    </pattern>

    <!-- Glow Filters -->
    <filter id="glow-cyan" x="-30%" y="-30%" width="160%" height="160%">
      <feGaussianBlur stdDeviation="6" result="blur"/>
      <feMerge>
        <feMergeNode in="blur"/>
        <feMergeNode in="SourceGraphic"/>
      </feMerge>
    </filter>

    <filter id="glow-soft" x="-20%" y="-20%" width="140%" height="140%">
      <feGaussianBlur stdDeviation="3" result="blur"/>
      <feMerge>
        <feMergeNode in="blur"/>
        <feMergeNode in="SourceGraphic"/>
      </feMerge>
    </filter>

    <filter id="drop-shadow-drone" x="-30%" y="-30%" width="160%" height="160%">
      <feDropShadow dx="0" dy="12" stdDeviation="14" flood-color="#0284c7" flood-opacity="0.35" />
      <feDropShadow dx="0" dy="4" stdDeviation="6" flood-color="#000000" flood-opacity="0.8" />
    </filter>

    <!-- Gradients -->
    <linearGradient id="grad-accent" x1="0%" y1="0%" x2="100%" y2="100%">
      <stop offset="0%" stop-color="#38bdf8"/>
      <stop offset="50%" stop-color="#2563eb"/>
      <stop offset="100%" stop-color="#0284c7"/>
    </linearGradient>

    <linearGradient id="drone-body-grad" x1="0%" y1="0%" x2="100%" y2="100%">
      <stop offset="0%" stop-color="#1e293b"/>
      <stop offset="50%" stop-color="#0f172a"/>
      <stop offset="100%" stop-color="#020617"/>
    </linearGradient>

    <linearGradient id="carbon-arm" x1="0%" y1="0%" x2="100%" y2="100%">
      <stop offset="0%" stop-color="#334155"/>
      <stop offset="50%" stop-color="#1e293b"/>
      <stop offset="100%" stop-color="#0f172a"/>
    </linearGradient>

    <linearGradient id="rotor-blur-grad" x1="0%" y1="0%" x2="100%" y2="100%">
      <stop offset="0%" stop-color="rgba(56, 189, 248, 0.45)"/>
      <stop offset="50%" stop-color="rgba(14, 165, 233, 0.18)"/>
      <stop offset="100%" stop-color="rgba(2, 132, 199, 0.02)"/>
    </linearGradient>

    <linearGradient id="headlight-cone" x1="50%" y1="100%" x2="50%" y2="0%">
      <stop offset="0%" stop-color="rgba(56, 189, 248, 0.4)"/>
      <stop offset="60%" stop-color="rgba(56, 189, 248, 0.08)"/>
      <stop offset="100%" stop-color="rgba(56, 189, 248, 0)"/>
    </linearGradient>

    <radialGradient id="nebula-bg" cx="50%" cy="50%" r="50%">
      <stop offset="0%" stop-color="#0284c7" stop-opacity="0.22"/>
      <stop offset="60%" stop-color="#0369a1" stop-opacity="0.06"/>
      <stop offset="100%" stop-color="#030712" stop-opacity="0"/>
    </radialGradient>
  </defs>

  <style>
    .bg-dark { fill: #030712; }
    .grid-layer { fill: url(#grid); }
    
    .font-mono {
      font-family: 'JetBrains Mono', 'Fira Code', 'Roboto Mono', 'Courier New', monospace;
    }

    .font-brand {
      font-family: 'Inter', 'Space Grotesk', -apple-system, BlinkMacSystemFont, 'Segoe UI', Roboto, sans-serif;
      font-weight: 800;
      letter-spacing: 9px;
    }

    @keyframes pulse-led {
      0%, 100% { opacity: 0.3; }
      50% { opacity: 1; }
    }

    @keyframes scanner-bar {
      0% { transform: translateY(-5px); opacity: 0; }
      15% { opacity: 0.7; }
      85% { opacity: 0.7; }
      100% { transform: translateY(385px); opacity: 0; }
    }

    @keyframes twinkle {
      0%, 100% { opacity: 0.2; }
      50% { opacity: 0.85; }
    }

    .status-pulse {
      animation: pulse-led 2s ease-in-out infinite;
    }

    .status-blink-fast {
      animation: pulse-led 0.8s ease-in-out infinite;
    }

    .scan-beam {
      animation: scanner-bar 5s cubic-bezier(0.25, 0.8, 0.25, 1) infinite;
    }

    .particle {
      animation: twinkle 3s ease-in-out infinite;
    }
  </style>

  <!-- 1. DEEP SPACE BACKGROUND -->
  <rect class="bg-dark" width="100%" height="100%"/>
  <rect class="grid-layer" width="100%" height="100%"/>

  <!-- 2. RADIAL NEBULA GLOW BEHIND DRONE HUD -->
  <circle cx="280" cy="190" r="220" fill="url(#nebula-bg)"/>
  <circle cx="750" cy="190" r="300" fill="url(#nebula-bg)" opacity="0.4"/>

  <!-- 3. PARTICLES & TELEMETRY NODES -->
  <g opacity="0.6">
    <circle class="particle" cx="120" cy="70" r="1.5" fill="#38bdf8" />
    <circle class="particle" cx="80" cy="280" r="1" fill="#fff" />
    <circle class="particle" cx="440" cy="60" r="1.5" fill="#00f0ff" />
    <circle class="particle" cx="490" cy="310" r="1.5" fill="#38bdf8" />
    <circle class="particle" cx="1120" cy="85" r="1.2" fill="#38bdf8" />
    <circle class="particle" cx="1060" cy="295" r="1.5" fill="#fff" />
    <circle class="particle" cx="620" cy="50" r="1" fill="#00f0ff" />
  </g>

  <!-- 4. SCANNER BEAM -->
  <rect class="scan-beam" x="0" y="0" width="1200" height="2" fill="rgba(56, 189, 248, 0.4)" filter="url(#glow-cyan)" />

  <!-- 5. CORNER HUD BRACKETS -->
  <g stroke="#38bdf8" stroke-width="2" fill="none" opacity="0.75">
    <path d="M 20,45 L 20,20 L 45,20" />
    <path d="M 1180,45 L 1180,20 L 1155,20" />
    <path d="M 20,335 L 20,360 L 45,360" />
    <path d="M 1180,335 L 1180,360 L 1155,360" />
  </g>

  <!-- 6. TOP HEADER TELEMETRY STRIP -->
  <text x="30" y="42" class="font-mono" fill="rgba(56, 189, 248, 0.5)" font-size="9" letter-spacing="1.5">SYS_CORE: ESP32-S3</text>
  <text x="175" y="42" class="font-mono" fill="rgba(255, 255, 255, 0.25)" font-size="9">|</text>
  <text x="195" y="42" class="font-mono" fill="rgba(56, 189, 248, 0.5)" font-size="9" letter-spacing="1.5">RF_LINK: ESP-NOW (2.4GHz)</text>
  <text x="385" y="42" class="font-mono" fill="rgba(255, 255, 255, 0.25)" font-size="9">|</text>
  <text x="405" y="42" class="font-mono" fill="rgba(56, 189, 248, 0.5)" font-size="9" letter-spacing="1.5">RATE: 100Hz AHRS</text>

  <g transform="translate(1085, 34)">
    <circle cx="0" cy="5" r="3.5" fill="#00f0ff" class="status-blink-fast" filter="url(#glow-soft)" />
    <text x="12" y="8" class="font-mono" fill="#38bdf8" font-size="10" font-weight="bold" letter-spacing="1.5">ARMED // LIVE</text>
  </g>

  <!-- ============================================================== -->
  <!-- 7. LEFT SIDE: INTERACTIVE QUADCOPTER HUD & 3D MICRODRONE       -->
  <!-- ============================================================== -->

  <!-- A. HUD RINGS & SENSOR RADAR (Stationary coordinate system) -->
  <g>
    <!-- Radio Signal Pulse Waves -->
    <circle cx="280" cy="190" r="110" fill="none" stroke="#0284c7" stroke-width="1">
      <animate attributeName="r" values="100;160" dur="3s" repeatCount="indefinite"/>
      <animate attributeName="opacity" values="0.6;0" dur="3s" repeatCount="indefinite"/>
    </circle>
    <circle cx="280" cy="190" r="110" fill="none" stroke="#38bdf8" stroke-width="1">
      <animate attributeName="r" values="100;160" dur="3s" begin="1.5s" repeatCount="indefinite"/>
      <animate attributeName="opacity" values="0.6;0" dur="3s" begin="1.5s" repeatCount="indefinite"/>
    </circle>

    <!-- Outer Telemetry Reticle -->
    <circle cx="280" cy="190" r="145" fill="none" stroke="rgba(56, 189, 248, 0.15)" stroke-width="1" stroke-dasharray="4 8" />
    
    <!-- Rotating Radar Rings -->
    <circle cx="280" cy="190" r="135" fill="none" stroke="#0ea5e9" stroke-width="1.5" stroke-dasharray="40 25 15 25 90 40" filter="url(#glow-soft)" opacity="0.6">
      <animateTransform attributeName="transform" type="rotate" from="0 280 190" to="360 280 190" dur="16s" repeatCount="indefinite" />
    </circle>
    <circle cx="280" cy="190" r="115" fill="none" stroke="#38bdf8" stroke-width="1" stroke-dasharray="10 30 5 15" opacity="0.4">
      <animateTransform attributeName="transform" type="rotate" from="360 280 190" to="0 280 190" dur="24s" repeatCount="indefinite" />
    </circle>

    <!-- Pitch Ladder / Flight Level Marks -->
    <line x1="240" y1="190" x2="260" y2="190" stroke="rgba(56, 189, 248, 0.4)" stroke-width="1.5"/>
    <line x1="300" y1="190" x2="320" y2="190" stroke="rgba(56, 189, 248, 0.4)" stroke-width="1.5"/>
    <line x1="255" y1="160" x2="265" y2="160" stroke="rgba(56, 189, 248, 0.25)" stroke-width="1"/>
    <line x1="295" y1="160" x2="305" y2="160" stroke="rgba(56, 189, 248, 0.25)" stroke-width="1"/>
    <line x1="255" y1="220" x2="265" y2="220" stroke="rgba(56, 189, 248, 0.25)" stroke-width="1"/>
    <line x1="295" y1="220" x2="305" y2="220" stroke="rgba(56, 189, 248, 0.25)" stroke-width="1"/>
    
    <!-- Gyro Angle Axis & Radar Crosshairs -->
    <path d="M 280,50 L 280,68 M 280,312 L 280,330 M 140,190 L 158,190 M 402,190 L 420,190" stroke="rgba(56, 189, 248, 0.5)" stroke-width="1.5"/>
    <text x="280" y="44" class="font-mono" fill="rgba(56, 189, 248, 0.6)" font-size="8" text-anchor="middle">000° HDG</text>
    <text x="430" y="193" class="font-mono" fill="rgba(56, 189, 248, 0.6)" font-size="8">090°</text>
    <text x="280" y="342" class="font-mono" fill="rgba(56, 189, 248, 0.6)" font-size="8" text-anchor="middle">180°</text>
    <text x="130" y="193" class="font-mono" fill="rgba(56, 189, 248, 0.6)" font-size="8" text-anchor="end">270°</text>

    <!-- Real-time Orientation Readout Decals -->
    <rect x="150" y="80" width="68" height="28" rx="4" fill="rgba(15, 23, 42, 0.7)" stroke="rgba(56, 189, 248, 0.2)" stroke-width="1"/>
    <text x="156" y="92" class="font-mono" fill="rgba(56, 189, 248, 0.5)" font-size="7">ROLL</text>
    <text x="156" y="103" class="font-mono" fill="#38bdf8" font-size="9" font-weight="bold">+0.42°</text>

    <rect x="345" y="80" width="68" height="28" rx="4" fill="rgba(15, 23, 42, 0.7)" stroke="rgba(56, 189, 248, 0.2)" stroke-width="1"/>
    <text x="351" y="92" class="font-mono" fill="rgba(56, 189, 248, 0.5)" font-size="7">PITCH</text>
    <text x="351" y="103" class="font-mono" fill="#38bdf8" font-size="9" font-weight="bold">-0.85°</text>

    <rect x="150" y="270" width="68" height="28" rx="4" fill="rgba(15, 23, 42, 0.7)" stroke="rgba(56, 189, 248, 0.2)" stroke-width="1"/>
    <text x="156" y="282" class="font-mono" fill="rgba(56, 189, 248, 0.5)" font-size="7">ALTITUDE</text>
    <text x="156" y="293" class="font-mono" fill="#00f0ff" font-size="9" font-weight="bold">1.24 m</text>

    <rect x="345" y="270" width="68" height="28" rx="4" fill="rgba(15, 23, 42, 0.7)" stroke="rgba(56, 189, 248, 0.2)" stroke-width="1"/>
    <text x="351" y="282" class="font-mono" fill="rgba(56, 189, 248, 0.5)" font-size="7">MADGWICK</text>
    <text x="351" y="293" class="font-mono" fill="#38bdf8" font-size="9" font-weight="bold">BETA 0.08</text>
  </g>

  <!-- B. THE MICRODRONE QUADCOPTER BODY -->
  <g transform="translate(280, 190)" filter="url(#drop-shadow-drone)">
    <animateTransform attributeName="transform" type="translate" values="280,190; 280,184; 280,190; 280,196; 280,190" dur="5s" repeatCount="indefinite"/>
    
    <!-- Twin Front Cyan Laser Headlights -->
    <polygon points="0,-18 -35,-130 35,-130" fill="url(#headlight-cone)"/>
    
    <!-- 1. CARBON FIBER X-FRAME ARMS -->
    <!-- Front-Left to Rear-Right Arm -->
    <path d="M -80,-80 L -12,-12 L 12,12 L 80,80 L 70,90 L 8,24 L -24,-8 L -90,-70 Z" fill="url(#carbon-arm)" stroke="rgba(56, 189, 248, 0.4)" stroke-width="1"/>
    <!-- Front-Right to Rear-Left Arm -->
    <path d="M 80,-80 L 12,-12 L -12,12 L -80,80 L -90,70 L -24,8 L 8,-24 L 70,-90 Z" fill="url(#carbon-arm)" stroke="rgba(56, 189, 248, 0.4)" stroke-width="1"/>

    <!-- ESC Motor Wiring Traces on Arms (Cyan PCB Traces) -->
    <line x1="-20" y1="-20" x2="-75" y2="-75" stroke="#00f0ff" stroke-width="1" stroke-dasharray="3 3" opacity="0.8"/>
    <line x1="20" y1="-20" x2="75" y2="-75" stroke="#00f0ff" stroke-width="1" stroke-dasharray="3 3" opacity="0.8"/>
    <line x1="-20" y1="20" x2="-75" y2="75" stroke="#00f0ff" stroke-width="1" stroke-dasharray="3 3" opacity="0.8"/>
    <line x1="20" y1="20" x2="75" y2="75" stroke="#00f0ff" stroke-width="1" stroke-dasharray="3 3" opacity="0.8"/>

    <!-- 2. FOUR MOTOR STATORS (BELLS) -->
    <!-- Motor 1: Front-Left (-75, -75) -->
    <circle cx="-75" cy="-75" r="14" fill="#0f172a" stroke="#38bdf8" stroke-width="2"/>
    <circle cx="-75" cy="-75" r="10" fill="#1e293b" />
    <circle cx="-75" cy="-75" r="4" fill="#f59e0b" />

    <!-- Motor 2: Front-Right (75, -75) -->
    <circle cx="75" cy="-75" r="14" fill="#0f172a" stroke="#38bdf8" stroke-width="2"/>
    <circle cx="75" cy="-75" r="10" fill="#1e293b" />
    <circle cx="75" cy="-75" r="4" fill="#f59e0b" />

    <!-- Motor 3: Rear-Left (-75, 75) -->
    <circle cx="-75" cy="75" r="14" fill="#0f172a" stroke="#38bdf8" stroke-width="2"/>
    <circle cx="-75" cy="75" r="10" fill="#1e293b" />
    <circle cx="-75" cy="75" r="4" fill="#f59e0b" />

    <!-- Motor 4: Rear-Right (75, 75) -->
    <circle cx="75" cy="75" r="14" fill="#0f172a" stroke="#38bdf8" stroke-width="2"/>
    <circle cx="75" cy="75" r="10" fill="#1e293b" />
    <circle cx="75" cy="75" r="4" fill="#f59e0b" />

    <!-- 3. PROPELLER BLUR DISKS & ROTATING MULTI-BLADE PROPELLERS -->
    
    <!-- Motor 1: Front-Left (CW) -->
    <g transform="translate(-75, -75)">
      <circle cx="0" cy="0" r="38" fill="url(#rotor-blur-grad)" stroke="rgba(56, 189, 248, 0.4)" stroke-width="1" stroke-dasharray="8 6"/>
      <circle cx="0" cy="0" r="42" fill="none" stroke="rgba(0, 240, 255, 0.18)" stroke-width="1.5"/>
      <g>
        <animateTransform attributeName="transform" type="rotate" from="0" to="360" dur="0.12s" repeatCount="indefinite" />
        <path d="M 0,0 C -6,-15 -2,-32 0,-38 C 2,-32 6,-15 0,0 Z" fill="#38bdf8" opacity="0.7"/>
        <path d="M 0,0 C 15,-6 32,-2 38,0 C 32,2 15,6 0,0 Z" fill="#38bdf8" opacity="0.7"/>
        <path d="M 0,0 C 6,15 2,32 0,38 C -2,32 -6,15 0,0 Z" fill="#38bdf8" opacity="0.7"/>
        <path d="M 0,0 C -15,6 -32,2 -38,0 C -32,-2 -15,-6 0,0 Z" fill="#38bdf8" opacity="0.7"/>
      </g>
    </g>

    <!-- Motor 2: Front-Right (CCW) -->
    <g transform="translate(75, -75)">
      <circle cx="0" cy="0" r="38" fill="url(#rotor-blur-grad)" stroke="rgba(56, 189, 248, 0.4)" stroke-width="1" stroke-dasharray="8 6"/>
      <circle cx="0" cy="0" r="42" fill="none" stroke="rgba(0, 240, 255, 0.18)" stroke-width="1.5"/>
      <g>
        <animateTransform attributeName="transform" type="rotate" from="360" to="0" dur="0.12s" repeatCount="indefinite" />
        <path d="M 0,0 C 6,-15 2,-32 0,-38 C -2,-32 -6,-15 0,0 Z" fill="#38bdf8" opacity="0.7"/>
        <path d="M 0,0 C 15,6 32,2 38,0 C 32,-2 15,-6 0,0 Z" fill="#38bdf8" opacity="0.7"/>
        <path d="M 0,0 C -6,15 -2,32 0,38 C 2,32 6,15 0,0 Z" fill="#38bdf8" opacity="0.7"/>
        <path d="M 0,0 C -15,-6 -32,-2 -38,0 C -32,2 -15,6 0,0 Z" fill="#38bdf8" opacity="0.7"/>
      </g>
    </g>

    <!-- Motor 3: Rear-Left (CCW) -->
    <g transform="translate(-75, 75)">
      <circle cx="0" cy="0" r="38" fill="url(#rotor-blur-grad)" stroke="rgba(56, 189, 248, 0.4)" stroke-width="1" stroke-dasharray="8 6"/>
      <circle cx="0" cy="0" r="42" fill="none" stroke="rgba(0, 240, 255, 0.18)" stroke-width="1.5"/>
      <g>
        <animateTransform attributeName="transform" type="rotate" from="360" to="0" dur="0.12s" repeatCount="indefinite" />
        <path d="M 0,0 C 6,-15 2,-32 0,-38 C -2,-32 -6,-15 0,0 Z" fill="#38bdf8" opacity="0.7"/>
        <path d="M 0,0 C 15,6 32,2 38,0 C 32,-2 15,-6 0,0 Z" fill="#38bdf8" opacity="0.7"/>
        <path d="M 0,0 C -6,15 -2,32 0,38 C 2,32 6,15 0,0 Z" fill="#38bdf8" opacity="0.7"/>
        <path d="M 0,0 C -15,-6 -32,-2 -38,0 C -32,2 -15,6 0,0 Z" fill="#38bdf8" opacity="0.7"/>
      </g>
    </g>

    <!-- Motor 4: Rear-Right (CW) -->
    <g transform="translate(75, 75)">
      <circle cx="0" cy="0" r="38" fill="url(#rotor-blur-grad)" stroke="rgba(56, 189, 248, 0.4)" stroke-width="1" stroke-dasharray="8 6"/>
      <circle cx="0" cy="0" r="42" fill="none" stroke="rgba(0, 240, 255, 0.18)" stroke-width="1.5"/>
      <g>
        <animateTransform attributeName="transform" type="rotate" from="0" to="360" dur="0.12s" repeatCount="indefinite" />
        <path d="M 0,0 C -6,-15 -2,-32 0,-38 C 2,-32 6,-15 0,0 Z" fill="#38bdf8" opacity="0.7"/>
        <path d="M 0,0 C 15,-6 32,-2 38,0 C 32,2 15,6 0,0 Z" fill="#38bdf8" opacity="0.7"/>
        <path d="M 0,0 C 6,15 2,32 0,38 C -2,32 -6,15 0,0 Z" fill="#38bdf8" opacity="0.7"/>
        <path d="M 0,0 C -15,6 -32,2 -38,0 C -32,-2 -15,-6 0,0 Z" fill="#38bdf8" opacity="0.7"/>
      </g>
    </g>

    <!-- 4. CENTER FLIGHT CONTROLLER (FC) MAIN BOARD & CANOPY -->
    <rect x="-30" y="-30" width="60" height="60" rx="8" ry="8" fill="url(#drone-body-grad)" stroke="#38bdf8" stroke-width="1.8"/>
    
    <!-- 4 Mounting Screws -->
    <circle cx="-22" cy="-22" r="2.5" fill="#64748b" stroke="#000" stroke-width="0.5"/>
    <circle cx="22" cy="-22" r="2.5" fill="#64748b" stroke="#000" stroke-width="0.5"/>
    <circle cx="-22" cy="22" r="2.5" fill="#64748b" stroke="#000" stroke-width="0.5"/>
    <circle cx="22" cy="22" r="2.5" fill="#64748b" stroke="#000" stroke-width="0.5"/>

    <!-- ESP32-S3 MCU Chip in Center -->
    <rect x="-14" y="-14" width="28" height="28" rx="2" fill="#020617" stroke="rgba(56, 189, 248, 0.7)" stroke-width="1"/>
    
    <!-- MCU Pins -->
    <g fill="#38bdf8">
      <rect x="-12" y="-16" width="2" height="2" />
      <rect x="-7" y="-16" width="2" height="2" />
      <rect x="-2" y="-16" width="2" height="2" />
      <rect x="3" y="-16" width="2" height="2" />
      <rect x="8" y="-16" width="2" height="2" />
      
      <rect x="-12" y="14" width="2" height="2" />
      <rect x="-7" y="14" width="2" height="2" />
      <rect x="-2" y="14" width="2" height="2" />
      <rect x="3" y="14" width="2" height="2" />
      <rect x="8" y="14" width="2" height="2" />
    </g>

    <!-- GY-91 9-DOF IMU Sensor Module -->
    <rect x="-8" y="-8" width="16" height="16" rx="1" fill="#0369a1" stroke="#00f0ff" stroke-width="0.75"/>
    
    <!-- Center Pulsing Heartbeat LED (Cyan) -->
    <circle cx="0" cy="0" r="3" fill="#00f0ff" class="status-pulse" filter="url(#glow-cyan)"/>
    <circle cx="0" cy="0" r="1.5" fill="#ffffff" />

    <!-- Forward Direction Indicator Arrow -->
    <polygon points="0,-27 -4,-21 4,-21" fill="#00f0ff" filter="url(#glow-soft)"/>

    <!-- Front Nav Lights (Twin Ultra Cyan LEDs) -->
    <circle cx="-16" cy="-26" r="2" fill="#00f0ff" filter="url(#glow-cyan)"/>
    <circle cx="16" cy="-26" r="2" fill="#00f0ff" filter="url(#glow-cyan)"/>
    
    <!-- Rear Nav Lights -->
    <circle cx="-16" cy="26" r="2" fill="#38bdf8" filter="url(#glow-cyan)"/>
    <circle cx="16" cy="26" r="2" fill="#38bdf8" filter="url(#glow-cyan)"/>
  </g>

  <!-- ============================================================== -->
  <!-- 8. CENTER DIVISION TELEMETRY LINE                              -->
  <!-- ============================================================== -->
  <line x1="510" y1="70" x2="510" y2="310" stroke="rgba(56, 189, 248, 0.15)" stroke-width="1" stroke-dasharray="6 6" />
  <circle cx="510" cy="70" r="2" fill="#38bdf8" opacity="0.6"/>
  <circle cx="510" cy="190" r="3" fill="#00f0ff" class="status-blink-fast" filter="url(#glow-soft)"/>
  <circle cx="510" cy="310" r="2" fill="#38bdf8" opacity="0.6"/>

  <!-- ============================================================== -->
  <!-- 9. RIGHT SIDE: BRANDING, TITLE & FEATURES                     -->
  <!-- ============================================================== -->
  <g transform="translate(560, 0)">
    
    <!-- CATEGORY BADGE -->
    <rect x="0" y="85" width="210" height="20" rx="3" fill="rgba(14, 165, 233, 0.1)" stroke="rgba(56, 189, 248, 0.4)" stroke-width="1"/>
    <circle cx="10" cy="95" r="3" fill="#00f0ff" class="status-blink-fast"/>
    <text x="20" y="98" class="font-mono" fill="#38bdf8" font-size="9.5" font-weight="bold" letter-spacing="1.5">GESTURE FLIGHT CONTROLLER</text>

    <!-- TITLE: AEROGLOVE -->
    <text x="0" y="162" class="font-brand" fill="#ffffff" font-size="52">AEROGLOVE</text>

    <!-- Neon Glow Dot on Title -->
    <circle cx="500" cy="144" r="4.5" fill="#00f0ff" filter="url(#glow-cyan)"/>
    <circle cx="500" cy="144" r="2" fill="#ffffff" />

    <!-- SUBTITLE / TAGLINE -->
    <text x="0" y="198" class="font-mono" fill="rgba(226, 232, 240, 0.9)" font-size="15" font-weight="600" letter-spacing="0.5">Controle Gestual para pyDrone via ESP32 &amp; MicroPython</text>

    <!-- FEATURE BULLETS WITH HIGH-TECH ICONS -->
    <g transform="translate(0, 226)">
      
      <!-- Bullet 1: Madgwick Sensor Fusion -->
      <g transform="translate(0, 0)">
        <rect x="0" y="0" width="8" height="8" rx="1.5" fill="#00f0ff" filter="url(#glow-soft)"/>
        <circle cx="4" cy="4" r="1.5" fill="#030712"/>
        <text x="20" y="8.5" class="font-mono" fill="rgba(241, 245, 249, 0.82)" font-size="11.5" letter-spacing="0.3">
          <tspan fill="#38bdf8" font-weight="bold">Fusão Sensorial 9-DOF:</tspan> Madgwick AHRS @ 100Hz (GY-91 / MPU-9250)
        </text>
      </g>

      <!-- Bullet 2: ESP-NOW Ultra Low Latency -->
      <g transform="translate(0, 24)">
        <rect x="0" y="0" width="8" height="8" rx="1.5" fill="#38bdf8" filter="url(#glow-soft)"/>
        <circle cx="4" cy="4" r="1.5" fill="#030712"/>
        <text x="20" y="8.5" class="font-mono" fill="rgba(241, 245, 249, 0.82)" font-size="11.5" letter-spacing="0.3">
          <tspan fill="#38bdf8" font-weight="bold">Telemetria &amp; Link RF:</tspan> Protocolo ESP-NOW peer-to-peer (&lt;10ms) &amp; BLE NUS
        </text>
      </g>

      <!-- Bullet 3: Robust MicroPython Architecture -->
      <g transform="translate(0, 48)">
        <rect x="0" y="0" width="8" height="8" rx="1.5" fill="#0284c7" filter="url(#glow-soft)"/>
        <circle cx="4" cy="4" r="1.5" fill="#030712"/>
        <text x="20" y="8.5" class="font-mono" fill="rgba(241, 245, 249, 0.82)" font-size="11.5" letter-spacing="0.3">
          <tspan fill="#38bdf8" font-weight="bold">Firmware Modular:</tspan> Calibração I2C, deadband/expo e failsafe de 200ms
        </text>
      </g>

    </g>
  </g>

  <!-- ============================================================== -->
  <!-- 10. BOTTOM HUD TELEMETRY & STATS FOOTER                        -->
  <!-- ============================================================== -->
  <rect x="20" y="328" width="1160" height="1" fill="rgba(56, 189, 248, 0.15)"/>
  
  <g class="font-mono" fill="rgba(56, 189, 248, 0.45)" font-size="9" letter-spacing="1">
    <text x="30" y="346">IMU: GY-91 [MPU-9250 + BMP280]</text>
    <text x="310" y="346">CHANNELS: 4CH (THR / ROLL / PITCH / YAW)</text>
    <text x="660" y="346">FAILSAFE: ACTIVE (&gt;200MS CUTOFF)</text>
    <text x="1170" y="346" text-anchor="end" fill="#38bdf8" font-weight="bold">LINK_QUALITY: 100% (-42dBm)</text>
  </g>

</svg>
